<mxfile host="app.diagrams.net" modified="2021-06-27T05:07:04.428Z" agent="5.0 (Macintosh; Intel Mac OS X 10_14_3) AppleWebKit/537.36 (KHTML, like Gecko) Chrome/91.0.4472.114 Safari/537.36" etag="BTZWUFC-z9366is5JXP_" version="14.7.7" type="github">
  <diagram id="3228e29e-7158-1315-38df-8450db1d8a1d" name="Page-1">
    <mxGraphModel dx="490" dy="1800" grid="0" gridSize="10" guides="1" tooltips="1" connect="1" arrows="1" fold="1" page="1" pageScale="1" pageWidth="819" pageHeight="400" background="#EFF1F3" math="0" shadow="1">
      <root>
        <mxCell id="0" />
        <mxCell id="1" parent="0" />
        <mxCell id="26ntziO5CHYj51Y-zPEi-3" value="" style="rounded=1;whiteSpace=wrap;html=1;dashed=1;strokeWidth=5;fillColor=none;" vertex="1" parent="1">
          <mxGeometry x="1795" y="-26" width="529" height="593" as="geometry" />
        </mxCell>
        <mxCell id="VN525CW4IU2bW7JPmV1f-49" value="" style="endArrow=none;html=1;strokeWidth=6;dashed=1;strokeColor=#EA6B66;startArrow=classic;startFill=1;endFill=0;" parent="1" edge="1">
          <mxGeometry width="50" height="50" relative="1" as="geometry">
            <mxPoint x="1014" y="-90" as="sourcePoint" />
            <mxPoint x="1014" y="515" as="targetPoint" />
          </mxGeometry>
        </mxCell>
        <mxCell id="VN525CW4IU2bW7JPmV1f-1" value="" style="rounded=1;whiteSpace=wrap;html=1;dashed=1;strokeWidth=5;fillColor=none;" parent="1" vertex="1">
          <mxGeometry x="974" y="-209" width="534" height="170" as="geometry" />
        </mxCell>
        <mxCell id="VN525CW4IU2bW7JPmV1f-2" value="" style="rounded=1;whiteSpace=wrap;html=1;dashed=1;strokeWidth=5;fillColor=none;" parent="1" vertex="1">
          <mxGeometry x="972" y="-26" width="529" height="586" as="geometry" />
        </mxCell>
        <mxCell id="VN525CW4IU2bW7JPmV1f-3" value="&lt;font style=&quot;font-size: 18px&quot;&gt;socket接口&lt;/font&gt;" style="rounded=1;whiteSpace=wrap;html=1;strokeColor=none;labelBackgroundColor=none;fillColor=#FDD276;" parent="1" vertex="1">
          <mxGeometry x="999.5" y="-46" width="483" height="26" as="geometry" />
        </mxCell>
        <mxCell id="VN525CW4IU2bW7JPmV1f-4" value="&lt;span style=&quot;color: rgb(51 , 51 , 51) ; font-family: &amp;#34;open sans&amp;#34; , &amp;#34;clear sans&amp;#34; , &amp;#34;helvetica neue&amp;#34; , &amp;#34;helvetica&amp;#34; , &amp;#34;arial&amp;#34; , sans-serif&quot;&gt;&lt;font style=&quot;font-size: 18px&quot;&gt;connect&lt;/font&gt;&lt;/span&gt;" style="rounded=1;whiteSpace=wrap;html=1;strokeColor=none;fillColor=#9AC7BF;labelBackgroundColor=none;" parent="1" vertex="1">
          <mxGeometry x="1040" y="-26" width="86" height="36" as="geometry" />
        </mxCell>
        <mxCell id="VN525CW4IU2bW7JPmV1f-5" value="&lt;span style=&quot;color: rgb(51 , 51 , 51) ; font-family: &amp;#34;open sans&amp;#34; , &amp;#34;clear sans&amp;#34; , &amp;#34;helvetica neue&amp;#34; , &amp;#34;helvetica&amp;#34; , &amp;#34;arial&amp;#34; , sans-serif&quot;&gt;&lt;font style=&quot;font-size: 18px&quot;&gt;socket&lt;/font&gt;&lt;/span&gt;" style="rounded=1;whiteSpace=wrap;html=1;strokeColor=none;fillColor=#9AC7BF;labelBackgroundColor=none;" parent="1" vertex="1">
          <mxGeometry x="1040" y="-70" width="86" height="36" as="geometry" />
        </mxCell>
        <mxCell id="VN525CW4IU2bW7JPmV1f-6" value="&lt;font style=&quot;font-size: 14px&quot;&gt;&lt;span style=&quot;color: rgb(51 , 51 , 51) ; font-family: &amp;#34;open sans&amp;#34; , &amp;#34;clear sans&amp;#34; , &amp;#34;helvetica neue&amp;#34; , &amp;#34;helvetica&amp;#34; , &amp;#34;arial&amp;#34; , sans-serif&quot;&gt;socket&lt;/span&gt;&lt;span style=&quot;color: rgb(51 , 51 , 51) ; font-family: &amp;#34;open sans&amp;#34; , &amp;#34;clear sans&amp;#34; , &amp;#34;helvetica neue&amp;#34; , &amp;#34;helvetica&amp;#34; , &amp;#34;arial&amp;#34; , sans-serif&quot;&gt;&lt;font&gt;(AF_INET, &lt;br&gt;SOCK_STREAM, 0)&lt;/font&gt;&lt;/span&gt;&lt;/font&gt;" style="text;html=1;strokeColor=none;fillColor=none;align=center;verticalAlign=middle;whiteSpace=wrap;rounded=0;" parent="1" vertex="1">
          <mxGeometry x="852" y="-74" width="128" height="61" as="geometry" />
        </mxCell>
        <mxCell id="VN525CW4IU2bW7JPmV1f-7" value="&lt;font style=&quot;font-size: 18px&quot;&gt;connect()&lt;/font&gt;" style="rounded=1;whiteSpace=wrap;html=1;strokeColor=none;fillColor=#4A919B;" parent="1" vertex="1">
          <mxGeometry x="1041.5" y="-142.62" width="83" height="37.25" as="geometry" />
        </mxCell>
        <mxCell id="VN525CW4IU2bW7JPmV1f-8" value="&lt;font style=&quot;font-size: 24px&quot;&gt;用户态&lt;/font&gt;" style="text;html=1;strokeColor=none;fillColor=none;align=center;verticalAlign=middle;whiteSpace=wrap;rounded=0;dashed=1;" parent="1" vertex="1">
          <mxGeometry x="1165" y="-183" width="132.5" height="20" as="geometry" />
        </mxCell>
        <mxCell id="VN525CW4IU2bW7JPmV1f-9" value="&lt;font style=&quot;font-size: 24px&quot;&gt;内核态&lt;/font&gt;" style="text;html=1;strokeColor=none;align=center;verticalAlign=middle;whiteSpace=wrap;rounded=0;dashed=1;labelBackgroundColor=none;" parent="1" vertex="1">
          <mxGeometry x="1186" width="102" height="20" as="geometry" />
        </mxCell>
        <mxCell id="VN525CW4IU2bW7JPmV1f-10" value="&lt;span style=&quot;color: rgb(51 , 51 , 51) ; font-family: &amp;#34;open sans&amp;#34; , &amp;#34;clear sans&amp;#34; , &amp;#34;helvetica neue&amp;#34; , &amp;#34;helvetica&amp;#34; , &amp;#34;arial&amp;#34; , sans-serif&quot;&gt;&lt;font style=&quot;font-size: 14px&quot;&gt;inet_stream_connect&lt;/font&gt;&lt;/span&gt;" style="rounded=1;whiteSpace=wrap;html=1;strokeColor=none;fontSize=18;fillColor=#9AC7BF;labelBackgroundColor=none;" parent="1" vertex="1">
          <mxGeometry x="1165" y="32" width="135" height="52" as="geometry" />
        </mxCell>
        <mxCell id="VN525CW4IU2bW7JPmV1f-11" value="&lt;span style=&quot;color: rgb(51, 51, 51); font-family: &amp;quot;open sans&amp;quot;, &amp;quot;clear sans&amp;quot;, &amp;quot;helvetica neue&amp;quot;, helvetica, arial, sans-serif; font-size: 18px;&quot;&gt;&lt;font style=&quot;font-size: 18px&quot;&gt;传输层&lt;/font&gt;&lt;/span&gt;" style="rounded=1;whiteSpace=wrap;html=1;strokeColor=none;fontSize=18;fillColor=#9AC7BF;labelBackgroundColor=none;" parent="1" vertex="1">
          <mxGeometry x="1165" y="104" width="135" height="52" as="geometry" />
        </mxCell>
        <mxCell id="VN525CW4IU2bW7JPmV1f-12" value="&lt;span style=&quot;color: rgb(51, 51, 51); font-family: &amp;quot;open sans&amp;quot;, &amp;quot;clear sans&amp;quot;, &amp;quot;helvetica neue&amp;quot;, helvetica, arial, sans-serif; font-size: 18px;&quot;&gt;网络层&lt;/span&gt;" style="rounded=1;whiteSpace=wrap;html=1;strokeColor=none;fontSize=18;fillColor=#9AC7BF;labelBackgroundColor=none;" parent="1" vertex="1">
          <mxGeometry x="1165" y="176" width="135" height="52" as="geometry" />
        </mxCell>
        <mxCell id="VN525CW4IU2bW7JPmV1f-13" value="&lt;span style=&quot;color: rgb(51, 51, 51); font-family: &amp;quot;open sans&amp;quot;, &amp;quot;clear sans&amp;quot;, &amp;quot;helvetica neue&amp;quot;, helvetica, arial, sans-serif; font-size: 18px;&quot;&gt;数据链路层&lt;/span&gt;" style="rounded=1;whiteSpace=wrap;html=1;strokeColor=none;fontSize=18;fillColor=#9AC7BF;labelBackgroundColor=none;" parent="1" vertex="1">
          <mxGeometry x="1168" y="249" width="135" height="52" as="geometry" />
        </mxCell>
        <mxCell id="VN525CW4IU2bW7JPmV1f-15" value="" style="ellipse;whiteSpace=wrap;html=1;aspect=fixed;dashed=1;fontSize=18;strokeWidth=30;fillColor=none;strokeColor=#4A919B;rotation=45;dashPattern=1 1;" parent="1" vertex="1">
          <mxGeometry x="1186" y="371" width="110" height="110" as="geometry" />
        </mxCell>
        <mxCell id="VN525CW4IU2bW7JPmV1f-16" value="" style="ellipse;whiteSpace=wrap;html=1;aspect=fixed;dashed=1;fontSize=18;strokeWidth=30;fillColor=none;rotation=75;dashPattern=1 1;strokeColor=#535E80;" parent="1" vertex="1">
          <mxGeometry x="1186" y="371" width="110" height="110" as="geometry" />
        </mxCell>
        <mxCell id="VN525CW4IU2bW7JPmV1f-17" value="ring buffer" style="text;html=1;strokeColor=none;fillColor=none;align=center;verticalAlign=middle;whiteSpace=wrap;rounded=0;dashed=1;dashPattern=1 1;fontSize=18;" parent="1" vertex="1">
          <mxGeometry x="1189.25" y="327" width="106" height="24" as="geometry" />
        </mxCell>
        <mxCell id="VN525CW4IU2bW7JPmV1f-19" value="" style="shape=flexArrow;endArrow=classic;html=1;strokeColor=none;fillColor=#9AC7BF;labelBackgroundColor=none;" parent="1" edge="1">
          <mxGeometry width="50" height="50" relative="1" as="geometry">
            <mxPoint x="972" y="-46.00000000000007" as="sourcePoint" />
            <mxPoint x="1022" y="-46.00000000000007" as="targetPoint" />
          </mxGeometry>
        </mxCell>
        <mxCell id="VN525CW4IU2bW7JPmV1f-20" value="" style="endArrow=none;dashed=1;html=1;labelBackgroundColor=none;fontSize=18;fontColor=#9AC7BF;fillColor=#9AC7BF;startArrow=classic;startFill=1;strokeWidth=6;strokeColor=#808080;" parent="1" edge="1">
          <mxGeometry width="50" height="50" relative="1" as="geometry">
            <mxPoint x="1126" y="486" as="sourcePoint" />
            <mxPoint x="1125.5" y="-98" as="targetPoint" />
          </mxGeometry>
        </mxCell>
        <mxCell id="VN525CW4IU2bW7JPmV1f-24" value="&lt;span style=&quot;font-size: 17px&quot;&gt;TCP头(SYN)&lt;/span&gt;" style="rounded=1;whiteSpace=wrap;html=1;strokeColor=none;fillColor=#4A919B;" parent="1" vertex="1">
          <mxGeometry x="1056.5" y="183" width="87.5" height="38" as="geometry" />
        </mxCell>
        <mxCell id="VN525CW4IU2bW7JPmV1f-25" value="&lt;font style=&quot;font-size: 18px&quot;&gt;IP头&lt;/font&gt;" style="rounded=1;whiteSpace=wrap;html=1;strokeColor=none;fillColor=#F19C99;" parent="1" vertex="1">
          <mxGeometry x="977" y="183" width="79.5" height="38" as="geometry" />
        </mxCell>
        <mxCell id="VN525CW4IU2bW7JPmV1f-26" value="&lt;span style=&quot;font-size: 17px&quot;&gt;TCP头(SYN)&lt;/span&gt;" style="rounded=1;whiteSpace=wrap;html=1;strokeColor=none;fillColor=#4A919B;" parent="1" vertex="1">
          <mxGeometry x="1063" y="258" width="87.5" height="38" as="geometry" />
        </mxCell>
        <mxCell id="VN525CW4IU2bW7JPmV1f-27" value="&lt;font style=&quot;font-size: 18px&quot;&gt;IP头&lt;/font&gt;" style="rounded=1;whiteSpace=wrap;html=1;strokeColor=none;fillColor=#F19C99;" parent="1" vertex="1">
          <mxGeometry x="983.5" y="258" width="79.5" height="38" as="geometry" />
        </mxCell>
        <mxCell id="VN525CW4IU2bW7JPmV1f-28" value="&lt;font style=&quot;font-size: 18px&quot;&gt;MAC头&lt;/font&gt;" style="rounded=1;whiteSpace=wrap;html=1;strokeColor=none;fillColor=#999999;" parent="1" vertex="1">
          <mxGeometry x="904" y="258" width="79.5" height="38" as="geometry" />
        </mxCell>
        <mxCell id="VN525CW4IU2bW7JPmV1f-30" value="&lt;font style=&quot;font-size: 17px&quot;&gt;TCP头(SYN)&lt;/font&gt;" style="rounded=1;whiteSpace=wrap;html=1;strokeColor=none;fillColor=#4A919B;" parent="1" vertex="1">
          <mxGeometry x="1056.5" y="114" width="87.5" height="38" as="geometry" />
        </mxCell>
        <mxCell id="VN525CW4IU2bW7JPmV1f-51" value="" style="pointerEvents=1;shadow=0;dashed=0;html=1;strokeColor=none;labelPosition=center;verticalLabelPosition=bottom;verticalAlign=top;align=center;outlineConnect=0;shape=mxgraph.veeam2.network_card;fillColor=#535E80;" parent="1" vertex="1">
          <mxGeometry x="1152.5" y="618" width="169" height="95" as="geometry" />
        </mxCell>
        <mxCell id="VN525CW4IU2bW7JPmV1f-52" value="网卡" style="text;html=1;strokeColor=none;fillColor=none;align=center;verticalAlign=middle;whiteSpace=wrap;rounded=0;dashed=1;dashPattern=1 1;fontSize=18;" parent="1" vertex="1">
          <mxGeometry x="1196" y="596" width="106" height="24" as="geometry" />
        </mxCell>
        <mxCell id="VN525CW4IU2bW7JPmV1f-53" value="" style="html=1;outlineConnect=0;gradientColor=none;gradientDirection=north;strokeWidth=2;shape=mxgraph.networks.cloud;fontColor=#ffffff;dashed=1;dashPattern=1 1;labelBackgroundColor=none;fontSize=18;strokeColor=none;fillColor=#535E80;" parent="1" vertex="1">
          <mxGeometry x="1597.25" y="695" width="117" height="65" as="geometry" />
        </mxCell>
        <mxCell id="VN525CW4IU2bW7JPmV1f-54" value="网络" style="text;html=1;strokeColor=none;fillColor=none;align=center;verticalAlign=middle;whiteSpace=wrap;rounded=0;dashed=1;dashPattern=1 1;fontSize=18;" parent="1" vertex="1">
          <mxGeometry x="1602.75" y="669" width="106" height="24" as="geometry" />
        </mxCell>
        <mxCell id="26ntziO5CHYj51Y-zPEi-2" value="" style="rounded=1;whiteSpace=wrap;html=1;dashed=1;strokeWidth=5;fillColor=none;" vertex="1" parent="1">
          <mxGeometry x="1797" y="-209" width="534" height="170" as="geometry" />
        </mxCell>
        <mxCell id="26ntziO5CHYj51Y-zPEi-4" value="&lt;font style=&quot;font-size: 18px&quot;&gt;socket接口&lt;/font&gt;" style="rounded=1;whiteSpace=wrap;html=1;strokeColor=none;labelBackgroundColor=none;fillColor=#FDD276;" vertex="1" parent="1">
          <mxGeometry x="1822.5" y="-46" width="483" height="26" as="geometry" />
        </mxCell>
        <mxCell id="26ntziO5CHYj51Y-zPEi-9" value="&lt;font style=&quot;font-size: 24px&quot;&gt;用户态&lt;/font&gt;" style="text;html=1;strokeColor=none;fillColor=none;align=center;verticalAlign=middle;whiteSpace=wrap;rounded=0;dashed=1;" vertex="1" parent="1">
          <mxGeometry x="1988" y="-183" width="132.5" height="20" as="geometry" />
        </mxCell>
        <mxCell id="26ntziO5CHYj51Y-zPEi-10" value="&lt;font style=&quot;font-size: 24px&quot;&gt;内核态&lt;/font&gt;" style="text;html=1;strokeColor=none;align=center;verticalAlign=middle;whiteSpace=wrap;rounded=0;dashed=1;labelBackgroundColor=none;" vertex="1" parent="1">
          <mxGeometry x="2009" width="102" height="20" as="geometry" />
        </mxCell>
        <mxCell id="26ntziO5CHYj51Y-zPEi-12" value="&lt;span style=&quot;color: rgb(51, 51, 51); font-family: &amp;quot;open sans&amp;quot;, &amp;quot;clear sans&amp;quot;, &amp;quot;helvetica neue&amp;quot;, helvetica, arial, sans-serif; font-size: 18px;&quot;&gt;&lt;font style=&quot;font-size: 18px&quot;&gt;传输层&lt;/font&gt;&lt;/span&gt;" style="rounded=1;whiteSpace=wrap;html=1;strokeColor=none;fontSize=18;fillColor=#9AC7BF;labelBackgroundColor=none;" vertex="1" parent="1">
          <mxGeometry x="1988" y="104" width="135" height="52" as="geometry" />
        </mxCell>
        <mxCell id="26ntziO5CHYj51Y-zPEi-13" value="&lt;span style=&quot;color: rgb(51, 51, 51); font-family: &amp;quot;open sans&amp;quot;, &amp;quot;clear sans&amp;quot;, &amp;quot;helvetica neue&amp;quot;, helvetica, arial, sans-serif; font-size: 18px;&quot;&gt;网络层&lt;/span&gt;" style="rounded=1;whiteSpace=wrap;html=1;strokeColor=none;fontSize=18;fillColor=#9AC7BF;labelBackgroundColor=none;" vertex="1" parent="1">
          <mxGeometry x="1988" y="176" width="135" height="52" as="geometry" />
        </mxCell>
        <mxCell id="26ntziO5CHYj51Y-zPEi-14" value="&lt;span style=&quot;color: rgb(51, 51, 51); font-family: &amp;quot;open sans&amp;quot;, &amp;quot;clear sans&amp;quot;, &amp;quot;helvetica neue&amp;quot;, helvetica, arial, sans-serif; font-size: 18px;&quot;&gt;数据链路层&lt;/span&gt;" style="rounded=1;whiteSpace=wrap;html=1;strokeColor=none;fontSize=18;fillColor=#9AC7BF;labelBackgroundColor=none;" vertex="1" parent="1">
          <mxGeometry x="1991" y="249" width="135" height="52" as="geometry" />
        </mxCell>
        <mxCell id="26ntziO5CHYj51Y-zPEi-27" value="&lt;span style=&quot;color: rgb(51 , 51 , 51) ; font-family: &amp;#34;open sans&amp;#34; , &amp;#34;clear sans&amp;#34; , &amp;#34;helvetica neue&amp;#34; , &amp;#34;helvetica&amp;#34; , &amp;#34;arial&amp;#34; , sans-serif ; font-size: 18px&quot;&gt;软中断&lt;/span&gt;" style="rounded=1;whiteSpace=wrap;html=1;strokeColor=none;fontSize=18;fillColor=#9AC7BF;labelBackgroundColor=none;" vertex="1" parent="1">
          <mxGeometry x="2183" y="423.00000000000006" width="85" height="48" as="geometry" />
        </mxCell>
        <mxCell id="26ntziO5CHYj51Y-zPEi-31" value="" style="endArrow=classic;dashed=1;html=1;labelBackgroundColor=none;fontSize=18;fontColor=#9AC7BF;fillColor=#9AC7BF;startArrow=none;startFill=0;strokeWidth=6;strokeColor=#808080;endFill=1;exitX=0.731;exitY=0.755;exitDx=0;exitDy=0;exitPerimeter=0;" edge="1" parent="1">
          <mxGeometry width="50" height="50" relative="1" as="geometry">
            <mxPoint x="2212.9979999999996" y="412.78499999999985" as="sourcePoint" />
            <mxPoint x="2213" y="151.21000000000004" as="targetPoint" />
          </mxGeometry>
        </mxCell>
        <mxCell id="26ntziO5CHYj51Y-zPEi-33" value="" style="shape=image;html=1;verticalAlign=top;verticalLabelPosition=bottom;labelBackgroundColor=#ffffff;imageAspect=0;aspect=fixed;image=https://cdn3.iconfinder.com/data/icons/miscellaneous-80/60/error-128.png" vertex="1" parent="1">
          <mxGeometry x="2153" y="99.5" width="53" height="53" as="geometry" />
        </mxCell>
        <mxCell id="26ntziO5CHYj51Y-zPEi-34" value="&lt;font style=&quot;font-size: 24px&quot; color=&quot;#ea6b66&quot;&gt;&lt;b&gt;RST&lt;/b&gt;&lt;/font&gt;" style="text;html=1;strokeColor=none;fillColor=none;align=center;verticalAlign=middle;whiteSpace=wrap;rounded=0;" vertex="1" parent="1">
          <mxGeometry x="2244" y="116" width="40" height="20" as="geometry" />
        </mxCell>
        <mxCell id="26ntziO5CHYj51Y-zPEi-35" value="" style="endArrow=classic;html=1;strokeWidth=6;dashed=1;strokeColor=#EA6B66;" edge="1" parent="1">
          <mxGeometry width="50" height="50" relative="1" as="geometry">
            <mxPoint x="2292" y="162" as="sourcePoint" />
            <mxPoint x="2292" y="489" as="targetPoint" />
          </mxGeometry>
        </mxCell>
        <mxCell id="26ntziO5CHYj51Y-zPEi-36" value="" style="endArrow=classic;html=1;strokeWidth=6;dashed=1;strokeColor=#EA6B66;entryX=0;entryY=0;entryDx=0;entryDy=0;" edge="1" parent="1" target="26ntziO5CHYj51Y-zPEi-38">
          <mxGeometry width="50" height="50" relative="1" as="geometry">
            <mxPoint x="2278" y="527" as="sourcePoint" />
            <mxPoint x="2088" y="604" as="targetPoint" />
            <Array as="points">
              <mxPoint x="2077" y="527" />
            </Array>
          </mxGeometry>
        </mxCell>
        <mxCell id="26ntziO5CHYj51Y-zPEi-37" value="" style="pointerEvents=1;shadow=0;dashed=0;html=1;strokeColor=none;labelPosition=center;verticalLabelPosition=bottom;verticalAlign=top;align=center;outlineConnect=0;shape=mxgraph.veeam2.network_card;fillColor=#535E80;" vertex="1" parent="1">
          <mxGeometry x="1971" y="614" width="169" height="95" as="geometry" />
        </mxCell>
        <mxCell id="26ntziO5CHYj51Y-zPEi-38" value="网卡" style="text;html=1;strokeColor=none;fillColor=none;align=center;verticalAlign=middle;whiteSpace=wrap;rounded=0;dashed=1;dashPattern=1 1;fontSize=18;" vertex="1" parent="1">
          <mxGeometry x="2014.5" y="592" width="106" height="24" as="geometry" />
        </mxCell>
        <mxCell id="26ntziO5CHYj51Y-zPEi-39" value="" style="ellipse;whiteSpace=wrap;html=1;aspect=fixed;dashed=1;fontSize=18;strokeWidth=30;fillColor=none;strokeColor=#4A919B;rotation=45;dashPattern=1 1;" vertex="1" parent="1">
          <mxGeometry x="2005" y="361" width="110" height="110" as="geometry" />
        </mxCell>
        <mxCell id="26ntziO5CHYj51Y-zPEi-40" value="" style="ellipse;whiteSpace=wrap;html=1;aspect=fixed;dashed=1;fontSize=18;strokeWidth=30;fillColor=none;rotation=75;dashPattern=1 1;strokeColor=#535E80;" vertex="1" parent="1">
          <mxGeometry x="2005" y="361" width="110" height="110" as="geometry" />
        </mxCell>
        <mxCell id="26ntziO5CHYj51Y-zPEi-41" value="ring buffer" style="text;html=1;strokeColor=none;fillColor=none;align=center;verticalAlign=middle;whiteSpace=wrap;rounded=0;dashed=1;dashPattern=1 1;fontSize=18;" vertex="1" parent="1">
          <mxGeometry x="2008.25" y="317" width="106" height="24" as="geometry" />
        </mxCell>
        <mxCell id="26ntziO5CHYj51Y-zPEi-42" value="" style="endArrow=classic;html=1;strokeWidth=6;dashed=1;strokeColor=#EA6B66;" edge="1" parent="1">
          <mxGeometry width="50" height="50" relative="1" as="geometry">
            <mxPoint x="1935" y="632" as="sourcePoint" />
            <mxPoint x="1357" y="632" as="targetPoint" />
          </mxGeometry>
        </mxCell>
        <mxCell id="26ntziO5CHYj51Y-zPEi-43" value="" style="endArrow=classic;html=1;strokeWidth=6;dashed=1;strokeColor=#EA6B66;" edge="1" parent="1">
          <mxGeometry width="50" height="50" relative="1" as="geometry">
            <mxPoint x="1262" y="584" as="sourcePoint" />
            <mxPoint x="1032" y="533" as="targetPoint" />
            <Array as="points">
              <mxPoint x="1202" y="533" />
            </Array>
          </mxGeometry>
        </mxCell>
        <mxCell id="26ntziO5CHYj51Y-zPEi-44" value="" style="endArrow=none;dashed=1;html=1;labelBackgroundColor=none;fontSize=18;fontColor=#9AC7BF;fillColor=#9AC7BF;startArrow=classic;startFill=1;strokeWidth=6;strokeColor=#808080;" edge="1" parent="1">
          <mxGeometry width="50" height="50" relative="1" as="geometry">
            <mxPoint x="1935" y="599.5" as="sourcePoint" />
            <mxPoint x="1356" y="599" as="targetPoint" />
          </mxGeometry>
        </mxCell>
        <mxCell id="26ntziO5CHYj51Y-zPEi-45" value="" style="endArrow=none;dashed=1;html=1;labelBackgroundColor=none;fontSize=18;fontColor=#9AC7BF;fillColor=#9AC7BF;startArrow=classic;startFill=1;strokeWidth=6;strokeColor=#808080;" edge="1" parent="1">
          <mxGeometry width="50" height="50" relative="1" as="geometry">
            <mxPoint x="2197" y="498" as="sourcePoint" />
            <mxPoint x="1945" y="596" as="targetPoint" />
            <Array as="points">
              <mxPoint x="2061" y="498" />
            </Array>
          </mxGeometry>
        </mxCell>
        <mxCell id="26ntziO5CHYj51Y-zPEi-46" value="" style="endArrow=none;html=1;strokeWidth=6;dashed=1;startArrow=classic;startFill=1;endFill=0;strokeColor=#808080;" edge="1" parent="1">
          <mxGeometry width="50" height="50" relative="1" as="geometry">
            <mxPoint x="1344" y="586" as="sourcePoint" />
            <mxPoint x="1125" y="513" as="targetPoint" />
            <Array as="points">
              <mxPoint x="1258" y="513" />
            </Array>
          </mxGeometry>
        </mxCell>
        <mxCell id="26ntziO5CHYj51Y-zPEi-47" value="&lt;font style=&quot;font-size: 30px&quot;&gt;2.数据从网卡&lt;br&gt;发送到网络&lt;/font&gt;" style="text;html=1;strokeColor=none;fillColor=none;align=center;verticalAlign=middle;whiteSpace=wrap;rounded=0;sketch=0;" vertex="1" parent="1">
          <mxGeometry x="1525" y="530" width="210.5" height="37" as="geometry" />
        </mxCell>
        <mxCell id="VN525CW4IU2bW7JPmV1f-37" value="&lt;font style=&quot;font-size: 30px&quot;&gt;1.数据进&lt;br&gt;ring buffer&lt;/font&gt;" style="text;html=1;strokeColor=none;fillColor=none;align=center;verticalAlign=middle;whiteSpace=wrap;rounded=0;sketch=0;" parent="1" vertex="1">
          <mxGeometry x="1035" y="337" width="170" height="34" as="geometry" />
        </mxCell>
        <mxCell id="26ntziO5CHYj51Y-zPEi-49" value="&lt;font style=&quot;font-size: 30px&quot;&gt;3.从网卡接受数据到 ring buffer&lt;br&gt;&lt;br&gt;&lt;/font&gt;" style="text;html=1;strokeColor=none;fillColor=none;align=center;verticalAlign=middle;whiteSpace=wrap;rounded=0;sketch=0;" vertex="1" parent="1">
          <mxGeometry x="1854" y="473" width="149" height="94" as="geometry" />
        </mxCell>
        <mxCell id="26ntziO5CHYj51Y-zPEi-50" value="&lt;font style=&quot;font-size: 30px&quot;&gt;4.软中断接收数据到协议栈&lt;br&gt;&lt;/font&gt;" style="text;html=1;strokeColor=none;fillColor=none;align=center;verticalAlign=middle;whiteSpace=wrap;rounded=0;sketch=0;" vertex="1" parent="1">
          <mxGeometry x="2126" y="309" width="149" height="94" as="geometry" />
        </mxCell>
        <mxCell id="26ntziO5CHYj51Y-zPEi-51" value="&lt;font style=&quot;font-size: 30px&quot;&gt;4.端口不存在，报RST&lt;br&gt;&lt;/font&gt;" style="text;html=1;strokeColor=none;fillColor=none;align=center;verticalAlign=middle;whiteSpace=wrap;rounded=0;sketch=0;" vertex="1" parent="1">
          <mxGeometry x="2126" y="10" width="312" height="128" as="geometry" />
        </mxCell>
        <mxCell id="26ntziO5CHYj51Y-zPEi-52" value="A" style="fontColor=#0066CC;verticalAlign=top;verticalLabelPosition=bottom;labelPosition=center;align=center;html=1;outlineConnect=0;gradientColor=none;gradientDirection=north;strokeWidth=2;shape=mxgraph.networks.pc;fillColor=#4A919B;" vertex="1" parent="1">
          <mxGeometry x="1108.72" y="-374" width="194.28" height="136" as="geometry" />
        </mxCell>
        <mxCell id="26ntziO5CHYj51Y-zPEi-54" value="A" style="fontColor=#0066CC;verticalAlign=top;verticalLabelPosition=bottom;labelPosition=center;align=center;html=1;outlineConnect=0;gradientColor=none;gradientDirection=north;strokeWidth=2;shape=mxgraph.networks.pc;fillColor=#4A919B;" vertex="1" parent="1">
          <mxGeometry x="1961.3600000000001" y="-374" width="194.28" height="136" as="geometry" />
        </mxCell>
      </root>
    </mxGraphModel>
  </diagram>
</mxfile>
